<svg width="91" height="94" viewBox="0 0 91 94" fill="none" xmlns="http://www.w3.org/2000/svg">
<path d="M77.4747 62.1834V57.6942L74.3884 56.5719C74.178 55.8003 73.8273 55.0989 73.4765 54.3974L74.8794 51.5917L71.7229 48.4352L68.8471 49.7679C68.2158 49.4172 67.5143 49.1367 66.7427 48.9262L65.7607 45.91H61.2715L60.1492 48.9964C59.4478 49.2068 58.8165 49.4874 58.2553 49.7679L55.3794 48.3651L52.2229 51.5215L53.5557 54.3974C53.2049 55.0989 52.8542 55.8003 52.6438 56.5719L49.6978 57.5539V62.0431L52.5737 63.0953C52.7841 63.8669 53.0647 64.5683 53.4154 65.1996L51.9424 68.0755L55.0988 71.232L57.9747 69.8993C58.6762 70.25 59.3776 70.6007 60.1492 70.8111L61.1312 73.7572H65.6204L66.6726 70.8813C67.5143 70.6708 68.2859 70.3201 69.0575 69.8993L71.8632 71.3021L75.0197 68.1457L73.687 65.1996C74.0377 64.5683 74.3183 63.8669 74.5287 63.0953L77.4747 62.1834ZM63.446 64.9892C60.7104 64.9892 58.5359 62.8147 58.5359 60.0791C58.5359 57.3435 60.7104 55.169 63.446 55.169C66.1816 55.169 68.356 57.3435 68.356 60.0791C68.356 62.8147 66.1816 64.9892 63.446 64.9892Z" stroke="#D53D27" stroke-width="4" stroke-miterlimit="10" stroke-linecap="round" stroke-linejoin="round"/>
<path d="M56.7822 17.7823V36.9316" stroke="#D53D27" stroke-width="4" stroke-miterlimit="10" stroke-linecap="round" stroke-linejoin="round"/>
<path d="M29.356 33.9155V91.2933" stroke="#D53D27" stroke-width="4" stroke-miterlimit="10" stroke-linecap="round" stroke-linejoin="round"/>
<path d="M2 17.7823V75.4406" stroke="#D53D27" stroke-width="4" stroke-miterlimit="10" stroke-linecap="round" stroke-linejoin="round"/>
<path d="M29.356 91.2931L47.5232 80.8417" stroke="#D53D27" stroke-width="4" stroke-miterlimit="10" stroke-linecap="round" stroke-linejoin="round"/>
<path d="M2 75.4407L29.3561 91.2932" stroke="#D53D27" stroke-width="4" stroke-miterlimit="10" stroke-linecap="round" stroke-linejoin="round"/>
<path d="M56.7822 17.7824L29.356 2" stroke="#D53D27" stroke-width="4" stroke-miterlimit="10" stroke-linecap="round" stroke-linejoin="round"/>
<path d="M29.3561 2L2 17.7824" stroke="#D53D27" stroke-width="4" stroke-miterlimit="10" stroke-linecap="round" stroke-linejoin="round"/>
<path d="M29.356 33.6349L56.7822 17.7823" stroke="#D53D27" stroke-width="4" stroke-miterlimit="10" stroke-linecap="round" stroke-linejoin="round"/>
<path d="M2 17.7823L29.3561 33.6349" stroke="#D53D27" stroke-width="4" stroke-miterlimit="10" stroke-linecap="round" stroke-linejoin="round"/>
<path d="M20.2373 52.7141V74.3184" stroke="#D53D27" stroke-width="4" stroke-miterlimit="10" stroke-linecap="round" stroke-linejoin="round"/>
<path d="M9.92627 46.6115V68.3561" stroke="#D53D27" stroke-width="4" stroke-miterlimit="10" stroke-linecap="round" stroke-linejoin="round"/>
<path d="M9.92627 68.3561L20.2374 74.3183" stroke="#D53D27" stroke-width="4" stroke-miterlimit="10" stroke-linecap="round" stroke-linejoin="round"/>
<path d="M9.92627 46.6115L20.2374 52.5737" stroke="#D53D27" stroke-width="4" stroke-miterlimit="10" stroke-linecap="round" stroke-linejoin="round"/>
<path d="M9.92627 37.7734L20.2374 43.7357" stroke="#D53D27" stroke-width="4" stroke-miterlimit="10" stroke-linecap="round" stroke-linejoin="round"/>
<path d="M9.92627 30.9695L20.2374 36.9317" stroke="#D53D27" stroke-width="4" stroke-miterlimit="10" stroke-linecap="round" stroke-linejoin="round"/>
<path d="M63.5163 83.5773C76.6102 83.5773 87.2249 72.9626 87.2249 59.8687C87.2249 46.7747 76.6102 36.16 63.5163 36.16C50.4223 36.16 39.8076 46.7747 39.8076 59.8687C39.8076 72.9626 50.4223 83.5773 63.5163 83.5773Z" stroke="#D53D27" stroke-width="6" stroke-miterlimit="10" stroke-linecap="round" stroke-linejoin="round"/>
</svg>
