<svg width="27" height="26" viewBox="0 0 27 26" fill="none" xmlns="http://www.w3.org/2000/svg">
<path d="M25.1499 0H2.0854C1.28481 0 0.636719 0.65 0.636719 1.45294V24.5853C0.636719 25.35 1.28481 26 2.0854 26H14.5136V15.9441H11.1206V12.0059H14.5136V9.1C14.5136 5.73529 16.5722 3.9 19.5458 3.9C20.9945 3.9 22.2144 4.01471 22.5575 4.05294V7.57059H20.4989C18.8596 7.57059 18.5546 8.33529 18.5546 9.48235V12.0059H22.4432L21.9476 15.9441H18.5927V26H25.188C25.9886 26 26.6367 25.35 26.6367 24.5471V1.45294C26.5605 0.65 25.9124 0 25.1499 0Z" fill="white"/>
</svg>
