<svg width="25" height="25" viewBox="0 0 25 25" fill="none" xmlns="http://www.w3.org/2000/svg">
<path d="M12.2654 2.2231C15.5617 2.2231 15.945 2.2231 17.2098 2.29975C18.398 2.33808 19.0496 2.56806 19.4713 2.72138C20.0462 2.95135 20.4678 3.21966 20.8894 3.64128C21.3111 4.0629 21.5794 4.48452 21.8093 5.05946C21.9627 5.48108 22.1926 6.13268 22.231 7.32088C22.3076 8.62408 22.3076 9.00737 22.3076 12.2654C22.3076 15.5233 22.3076 15.945 22.231 17.2098C22.1926 18.398 21.9627 19.0496 21.8093 19.4713C21.5794 20.0462 21.3111 20.4678 20.8894 20.8894C20.4678 21.3111 20.0462 21.5794 19.4713 21.8093C19.0496 21.9627 18.398 22.1926 17.2098 22.231C15.9066 22.3076 15.5233 22.3076 12.2654 22.3076C9.00737 22.3076 8.58575 22.3076 7.32088 22.231C6.13268 22.231 5.48108 22.001 5.02113 21.8477C4.44619 21.6177 4.02457 21.3494 3.60295 20.9278C3.18133 20.5061 2.91302 20.0845 2.68305 19.5096C2.52973 19.088 2.29975 18.4364 2.26142 17.2482C2.2231 15.945 2.2231 15.5617 2.2231 12.2654C2.2231 8.96904 2.2231 8.58575 2.29975 7.32088C2.33808 6.13268 2.56806 5.48108 2.72138 5.05946C2.95135 4.48452 3.21966 4.0629 3.64128 3.64128C4.0629 3.21966 4.48452 2.95135 5.05946 2.72138C5.48108 2.56806 6.13268 2.33808 7.32088 2.29975C8.62408 2.2231 9.00737 2.2231 12.2654 2.2231ZM12.2654 0C8.93071 0 8.50909 0 7.2059 0.0766585C5.9027 0.153317 5.02113 0.344963 4.21622 0.651597C3.4113 0.958231 2.7597 1.37985 2.06978 2.06978C1.37985 2.75971 0.958231 3.4113 0.651597 4.21622C0.344963 4.9828 0.153317 5.9027 0.0766585 7.2059C0 8.50909 0 8.93071 0 12.2654C0 15.6 0 16.0216 0.0766585 17.3248C0.114988 18.628 0.344963 19.5479 0.651597 20.3145C0.958231 21.1194 1.37985 21.8093 2.06978 22.4993C2.7597 23.1892 3.44963 23.6108 4.25455 23.9174C5.02113 24.2241 5.94103 24.4157 7.24423 24.4924C8.54742 24.569 8.96904 24.569 12.3037 24.569C15.6383 24.569 16.0599 24.569 17.3631 24.4924C18.6663 24.4157 19.5479 24.2241 20.3528 23.9174C21.1577 23.6108 21.8477 23.1892 22.5376 22.4993C23.2275 21.8093 23.6491 21.1194 23.9558 20.3145C24.2624 19.5479 24.4541 18.628 24.5307 17.3248C24.6074 16.0216 24.6074 15.6 24.6074 12.2654C24.6074 8.93071 24.6074 8.50909 24.5307 7.2059C24.4541 5.9027 24.2624 5.02113 23.9558 4.21622C23.6491 3.4113 23.2275 2.72138 22.5376 2.03145C21.8477 1.34152 21.1577 0.919902 20.3528 0.613268C19.5862 0.306634 18.6663 0.114988 17.3631 0.0383292C16.0216 0 15.6 0 12.2654 0Z" fill="white"/>
<path d="M12.2655 5.97949C8.77753 5.97949 5.97949 8.81586 5.97949 12.2655C5.97949 15.7151 8.77753 18.5898 12.2655 18.5898C15.7534 18.5898 18.5898 15.7534 18.5898 12.2655C18.5898 8.77753 15.7534 5.97949 12.2655 5.97949ZM12.2655 16.3667C10.0041 16.3667 8.16426 14.5269 8.16426 12.2655C8.16426 10.0041 10.0041 8.20259 12.2655 8.20259C14.5269 8.20259 16.3667 10.0041 16.3667 12.2655C16.3667 14.5269 14.5269 16.3667 12.2655 16.3667Z" fill="white"/>
<path d="M18.8195 7.16766C19.624 7.16766 20.2761 6.51556 20.2761 5.71115C20.2761 4.90674 19.624 4.25464 18.8195 4.25464C18.0151 4.25464 17.363 4.90674 17.363 5.71115C17.363 6.51556 18.0151 7.16766 18.8195 7.16766Z" fill="white"/>
</svg>
