<svg width="91" height="94" viewBox="0 0 91 94" fill="none" xmlns="http://www.w3.org/2000/svg">
<path d="M50.2588 59.9389L76.8433 59.8688" stroke="#D53D27" stroke-width="4" stroke-miterlimit="10" stroke-linecap="round" stroke-linejoin="round"/>
<path d="M63.5161 46.6115L63.5863 73.196" stroke="#D53D27" stroke-width="4" stroke-miterlimit="10" stroke-linecap="round" stroke-linejoin="round"/>
<path d="M56.8525 17.8525V36.9317" stroke="#D53D27" stroke-width="4" stroke-miterlimit="10" stroke-linecap="round" stroke-linejoin="round"/>
<path d="M29.4263 33.9856V91.2932" stroke="#D53D27" stroke-width="4" stroke-miterlimit="10" stroke-linecap="round" stroke-linejoin="round"/>
<path d="M2 17.8525V75.5108" stroke="#D53D27" stroke-width="4" stroke-miterlimit="10" stroke-linecap="round" stroke-linejoin="round"/>
<path d="M29.4263 91.2932L47.5234 80.8418" stroke="#D53D27" stroke-width="4" stroke-miterlimit="10" stroke-linecap="round" stroke-linejoin="round"/>
<path d="M2 75.5109L29.4263 91.2932" stroke="#D53D27" stroke-width="4" stroke-miterlimit="10" stroke-linecap="round" stroke-linejoin="round"/>
<path d="M56.8525 17.8525L29.4263 2" stroke="#D53D27" stroke-width="4" stroke-miterlimit="10" stroke-linecap="round" stroke-linejoin="round"/>
<path d="M29.4263 2L2 17.8525" stroke="#D53D27" stroke-width="4" stroke-miterlimit="10" stroke-linecap="round" stroke-linejoin="round"/>
<path d="M29.4263 33.6349L56.8525 17.8525" stroke="#D53D27" stroke-width="4" stroke-miterlimit="10" stroke-linecap="round" stroke-linejoin="round"/>
<path d="M2 17.8525L29.4263 33.6349" stroke="#D53D27" stroke-width="4" stroke-miterlimit="10" stroke-linecap="round" stroke-linejoin="round"/>
<path d="M20.2373 52.7141V74.3886" stroke="#D53D27" stroke-width="4" stroke-miterlimit="10" stroke-linecap="round" stroke-linejoin="round"/>
<path d="M9.92627 46.6816V68.4262" stroke="#D53D27" stroke-width="4" stroke-miterlimit="10" stroke-linecap="round" stroke-linejoin="round"/>
<path d="M9.92627 68.3561L20.2374 74.3885" stroke="#D53D27" stroke-width="4" stroke-miterlimit="10" stroke-linecap="round" stroke-linejoin="round"/>
<path d="M9.92627 46.6816L20.2374 52.6439" stroke="#D53D27" stroke-width="4" stroke-miterlimit="10" stroke-linecap="round" stroke-linejoin="round"/>
<path d="M9.92627 37.7734L20.2374 43.7357" stroke="#D53D27" stroke-width="4" stroke-miterlimit="10" stroke-linecap="round" stroke-linejoin="round"/>
<path d="M9.92627 30.9695L20.2374 36.9317" stroke="#D53D27" stroke-width="4" stroke-miterlimit="10" stroke-linecap="round" stroke-linejoin="round"/>
<path d="M63.5866 83.5773C76.6805 83.5773 87.2952 72.9626 87.2952 59.8687C87.2952 46.7748 76.6805 36.16 63.5866 36.16C50.4927 36.16 39.8779 46.7748 39.8779 59.8687C39.8779 72.9626 50.4927 83.5773 63.5866 83.5773Z" stroke="#D53D27" stroke-width="6" stroke-miterlimit="10" stroke-linecap="round" stroke-linejoin="round"/>
</svg>
