<svg width="91" height="94" viewBox="0 0 91 94" fill="none" xmlns="http://www.w3.org/2000/svg">
<path d="M64.2179 48.7158C61.7629 46.2608 58.1855 45.6295 55.1693 46.8219L60.2197 51.8723C60.6405 52.2932 60.6405 53.0647 60.2197 53.4856L56.9931 56.7122C56.5722 57.1331 55.8006 57.1331 55.3798 56.7122L50.3294 51.6619C49.1369 54.6781 49.7682 58.2554 52.2233 60.7104C54.538 63.0252 57.7646 63.7266 60.6405 62.8147L70.11 72.2842C71.7233 73.8975 74.2485 73.8975 75.8618 72.2842C77.4751 70.6709 77.4751 68.1457 75.8618 66.5324L66.3924 57.0629C67.2341 54.2572 66.5326 50.9604 64.2179 48.7158Z" stroke="#D53D27" stroke-width="4" stroke-miterlimit="10" stroke-linecap="round" stroke-linejoin="round"/>
<path d="M56.7822 17.8525V36.9317" stroke="#D53D27" stroke-width="4" stroke-miterlimit="10" stroke-linecap="round" stroke-linejoin="round"/>
<path d="M29.356 33.9856V91.2932" stroke="#D53D27" stroke-width="4" stroke-miterlimit="10" stroke-linecap="round" stroke-linejoin="round"/>
<path d="M2 17.8525V75.5108" stroke="#D53D27" stroke-width="4" stroke-miterlimit="10" stroke-linecap="round" stroke-linejoin="round"/>
<path d="M29.356 91.2932L47.5232 80.8418" stroke="#D53D27" stroke-width="4" stroke-miterlimit="10" stroke-linecap="round" stroke-linejoin="round"/>
<path d="M2 75.5109L29.3561 91.2932" stroke="#D53D27" stroke-width="4" stroke-miterlimit="10" stroke-linecap="round" stroke-linejoin="round"/>
<path d="M56.7822 17.8525L29.356 2" stroke="#D53D27" stroke-width="4" stroke-miterlimit="10" stroke-linecap="round" stroke-linejoin="round"/>
<path d="M29.3561 2L2 17.8525" stroke="#D53D27" stroke-width="4" stroke-miterlimit="10" stroke-linecap="round" stroke-linejoin="round"/>
<path d="M29.356 33.6349L56.7822 17.8525" stroke="#D53D27" stroke-width="4" stroke-miterlimit="10" stroke-linecap="round" stroke-linejoin="round"/>
<path d="M2 17.8525L29.3561 33.6349" stroke="#D53D27" stroke-width="4" stroke-miterlimit="10" stroke-linecap="round" stroke-linejoin="round"/>
<path d="M20.2373 52.7141V74.3886" stroke="#D53D27" stroke-width="4" stroke-miterlimit="10" stroke-linecap="round" stroke-linejoin="round"/>
<path d="M9.92627 46.6816V68.4262" stroke="#D53D27" stroke-width="4" stroke-miterlimit="10" stroke-linecap="round" stroke-linejoin="round"/>
<path d="M9.92627 68.3561L20.2374 74.3885" stroke="#D53D27" stroke-width="4" stroke-miterlimit="10" stroke-linecap="round" stroke-linejoin="round"/>
<path d="M9.92627 46.6816L20.2374 52.6439" stroke="#D53D27" stroke-width="4" stroke-miterlimit="10" stroke-linecap="round" stroke-linejoin="round"/>
<path d="M9.92627 37.7734L20.2374 43.7357" stroke="#D53D27" stroke-width="4" stroke-miterlimit="10" stroke-linecap="round" stroke-linejoin="round"/>
<path d="M9.92627 30.9695L20.2374 36.9317" stroke="#D53D27" stroke-width="4" stroke-miterlimit="10" stroke-linecap="round" stroke-linejoin="round"/>
<path d="M63.5163 83.5773C76.6102 83.5773 87.2249 72.9626 87.2249 59.8687C87.2249 46.7748 76.6102 36.16 63.5163 36.16C50.4223 36.16 39.8076 46.7748 39.8076 59.8687C39.8076 72.9626 50.4223 83.5773 63.5163 83.5773Z" stroke="#D53D27" stroke-width="6" stroke-miterlimit="10" stroke-linecap="round" stroke-linejoin="round"/>
</svg>
