<svg width="91" height="94" viewBox="0 0 91 94" fill="none" xmlns="http://www.w3.org/2000/svg">
<path d="M56.8525 17.7823V36.9316" stroke="#D53D27" stroke-width="4" stroke-miterlimit="10" stroke-linecap="round" stroke-linejoin="round"/>
<path d="M29.4263 33.9155V91.2933" stroke="#D53D27" stroke-width="4" stroke-miterlimit="10" stroke-linecap="round" stroke-linejoin="round"/>
<path d="M2 17.7823V75.4406" stroke="#D53D27" stroke-width="4" stroke-miterlimit="10" stroke-linecap="round" stroke-linejoin="round"/>
<path d="M29.4263 91.2931L47.5234 80.8417" stroke="#D53D27" stroke-width="4" stroke-miterlimit="10" stroke-linecap="round" stroke-linejoin="round"/>
<path d="M2 75.4407L29.4263 91.2932" stroke="#D53D27" stroke-width="4" stroke-miterlimit="10" stroke-linecap="round" stroke-linejoin="round"/>
<path d="M56.8525 17.7824L29.4263 2" stroke="#D53D27" stroke-width="4" stroke-miterlimit="10" stroke-linecap="round" stroke-linejoin="round"/>
<path d="M29.4263 2L2 17.7824" stroke="#D53D27" stroke-width="4" stroke-miterlimit="10" stroke-linecap="round" stroke-linejoin="round"/>
<path d="M29.4263 33.6349L56.8525 17.7823" stroke="#D53D27" stroke-width="4" stroke-miterlimit="10" stroke-linecap="round" stroke-linejoin="round"/>
<path d="M2 17.7823L29.4263 33.6349" stroke="#D53D27" stroke-width="4" stroke-miterlimit="10" stroke-linecap="round" stroke-linejoin="round"/>
<path d="M20.2373 52.7141V74.3184" stroke="#D53D27" stroke-width="4" stroke-miterlimit="10" stroke-linecap="round" stroke-linejoin="round"/>
<path d="M9.92627 46.6115V68.3561" stroke="#D53D27" stroke-width="4" stroke-miterlimit="10" stroke-linecap="round" stroke-linejoin="round"/>
<path d="M9.92627 68.3561L20.2374 74.3183" stroke="#D53D27" stroke-width="4" stroke-miterlimit="10" stroke-linecap="round" stroke-linejoin="round"/>
<path d="M9.92627 46.6115L20.2374 52.5737" stroke="#D53D27" stroke-width="4" stroke-miterlimit="10" stroke-linecap="round" stroke-linejoin="round"/>
<path d="M9.92627 37.7734L20.2374 43.7357" stroke="#D53D27" stroke-width="4" stroke-miterlimit="10" stroke-linecap="round" stroke-linejoin="round"/>
<path d="M9.92627 30.9695L20.2374 36.9317" stroke="#D53D27" stroke-width="4" stroke-miterlimit="10" stroke-linecap="round" stroke-linejoin="round"/>
<path d="M63.5866 83.5773C76.6805 83.5773 87.2952 72.9626 87.2952 59.8687C87.2952 46.7747 76.6805 36.16 63.5866 36.16C50.4927 36.16 39.8779 46.7747 39.8779 59.8687C39.8779 72.9626 50.4927 83.5773 63.5866 83.5773Z" stroke="#D53D27" stroke-width="6" stroke-miterlimit="10" stroke-linecap="round" stroke-linejoin="round"/>
<path d="M63.5864 72.0036C56.8526 72.0036 51.3813 66.5323 51.3813 59.7985C51.3813 56.3615 52.7842 53.2751 55.099 51.0305" stroke="#D53D27" stroke-width="4" stroke-linecap="round" stroke-linejoin="round"/>
<path d="M57.7645 56.1511L60.7807 45.6295L50.189 48.295L57.7645 56.1511Z" fill="#D53D27"/>
<path d="M63.5864 47.6637C70.3202 47.6637 75.7915 53.1349 75.7915 59.8687C75.7915 63.3058 74.3886 66.3921 72.0738 68.6367" stroke="#D53D27" stroke-width="4" stroke-linecap="round" stroke-linejoin="round"/>
<path d="M69.4083 63.5864L66.3921 74.108L76.9838 71.4425L69.4083 63.5864Z" fill="#D53D27"/>
</svg>
