<svg width="278" height="41" viewBox="0 0 278 41" fill="none" xmlns="http://www.w3.org/2000/svg">
<g opacity="0.5">
<path d="M83.4498 21.917C83.0087 22.1513 82.4987 22.2754 81.9335 22.2754C81.4373 22.2754 80.9686 22.1651 80.5413 21.9583C80.114 21.7516 79.7418 21.4621 79.4248 21.0761C79.1078 20.704 78.8596 20.2629 78.6804 19.7528C78.5012 19.2428 78.4185 18.6915 78.4185 18.085C78.4185 17.4922 78.515 16.9409 78.708 16.4309C78.901 15.9208 79.1491 15.4797 79.4799 15.1076C79.8107 14.7354 80.1967 14.4459 80.6378 14.2529C81.0789 14.0462 81.5613 13.9497 82.0851 13.9497C82.6089 13.9497 83.0638 14.0462 83.4636 14.2392C83.8633 14.4184 84.1941 14.694 84.456 15.0386L86.6064 13.2605C86.3307 12.9021 86.0274 12.5988 85.6828 12.3645C85.3382 12.1164 84.9798 11.9234 84.6077 11.7718C84.2355 11.6202 83.8633 11.5099 83.4773 11.441C83.0914 11.372 82.7192 11.3307 82.3608 11.3307C81.3821 11.3169 80.4724 11.4685 79.6316 11.7856C78.8045 12.1026 78.0739 12.5437 77.4674 13.1364C76.8609 13.7291 76.3785 14.4321 76.0339 15.273C75.6893 16.1138 75.5101 17.0511 75.5101 18.085C75.4963 19.1188 75.6617 20.0561 75.9925 20.8969C76.3233 21.7378 76.792 22.4546 77.3847 23.0611C77.9912 23.6538 78.6942 24.1224 79.5213 24.4395C80.3483 24.7565 81.2581 24.9219 82.2368 24.9357C83.1052 24.9357 83.946 24.7703 84.7593 24.4119C85.5726 24.0535 86.2618 23.4884 86.7993 22.7302L84.4974 20.9383C84.2493 21.338 83.8909 21.6826 83.4498 21.917Z" fill="white"/>
<path d="M93.9119 11.7305L88.3706 24.6187L91.4307 24.6463L92.4921 21.917L97.3855 21.9584L98.4469 24.7014L101.576 24.729L96.2 11.758L93.9119 11.7305ZM93.3881 19.5048L94.9457 15.4936L96.4619 19.5185L93.3881 19.5048Z" fill="white"/>
<path d="M113.348 20.8693H113.32L108.041 11.8407L104.264 11.7993L104.167 24.7427L106.938 24.7565L107.007 15.5486H107.048L112.465 24.7978L116.091 24.8254L116.201 11.8958L113.416 11.882L113.348 20.8693Z" fill="white"/>
<path d="M126.525 11.9784L124.237 11.9646L118.696 24.8528L121.756 24.8804L122.831 22.1511L127.724 22.1925L128.786 24.9355L131.915 24.9631L126.525 11.9784ZM123.713 19.7389L125.271 15.7277L126.787 19.7527L123.713 19.7389Z" fill="white"/>
<path d="M145.575 15.6038C145.189 14.7767 144.651 14.1013 143.976 13.5775C143.301 13.0537 142.515 12.6678 141.605 12.4334C140.695 12.1991 139.744 12.075 138.738 12.0613L134.575 12.0337L134.479 24.9633L139.014 24.9908C139.951 25.0046 140.847 24.8668 141.702 24.5911C142.556 24.3154 143.314 23.9157 143.962 23.3781C144.624 22.8405 145.148 22.1789 145.534 21.3794C145.92 20.5799 146.126 19.6701 146.126 18.6225C146.154 17.4509 145.961 16.4446 145.575 15.6038ZM142.915 20.318C142.68 20.828 142.363 21.2278 141.95 21.531C141.55 21.8343 141.068 22.0548 140.516 22.1927C139.965 22.3167 139.372 22.3856 138.724 22.3856L137.291 22.3718L137.346 14.694L138.986 14.7078C139.565 14.7078 140.116 14.7905 140.64 14.9422C141.164 15.0938 141.619 15.3281 142.019 15.6314C142.405 15.9346 142.722 16.3344 142.942 16.803C143.177 17.2717 143.287 17.8231 143.273 18.4571C143.259 19.1877 143.149 19.808 142.915 20.318Z" fill="white"/>
<path d="M149.383 12.1444L149.284 25.074L152.055 25.095L152.153 12.1654L149.383 12.1444Z" fill="white"/>
<path d="M162.447 12.2403L160.159 12.2266L154.617 25.1148L157.678 25.1424L158.753 22.4131L163.646 22.4544L164.707 25.1975L167.836 25.2251L162.447 12.2403ZM159.621 20.0146L161.179 16.0034L162.695 20.0284L159.621 20.0146Z" fill="white"/>
<path d="M179.595 21.3656H179.567L174.274 12.3369L170.511 12.3093L170.414 25.2389L173.185 25.2665L173.254 16.0586H173.295L178.712 25.3078L182.338 25.3354L182.434 12.392L179.664 12.3782L179.595 21.3656Z" fill="white"/>
<path d="M203.097 23.2677C203.524 23.0747 203.896 22.8266 204.227 22.5234C204.544 22.2201 204.806 21.8617 205.013 21.4758C205.219 21.0898 205.371 20.6763 205.481 20.2352C205.592 19.7941 205.633 19.353 205.647 18.8843C205.66 17.9056 205.481 17.0235 205.137 16.2102C204.792 15.3969 204.323 14.6939 203.717 14.1012C203.11 13.5085 202.407 13.0536 201.594 12.709C200.781 12.3782 199.899 12.199 198.961 12.199C198.024 12.199 197.142 12.3506 196.328 12.6676C195.501 12.9847 194.798 13.4258 194.192 14.0185C193.585 14.6112 193.103 15.3004 192.745 16.1137C192.386 16.927 192.207 17.8229 192.193 18.8016C192.179 19.8492 192.345 20.7866 192.689 21.5998C193.02 22.4131 193.489 23.1161 194.095 23.695C194.702 24.274 195.405 24.7151 196.246 25.0183C197.073 25.3216 197.983 25.4732 198.975 25.487L206.598 25.5421L206.612 23.3504L203.097 23.3229V23.2677ZM202.449 20.4282C202.242 20.9106 201.966 21.3379 201.608 21.6963C201.249 22.0547 200.85 22.3304 200.381 22.5372C199.912 22.7439 199.416 22.8404 198.879 22.8404C198.341 22.8404 197.845 22.7301 197.39 22.5234C196.935 22.3166 196.521 22.0271 196.177 21.6687C195.832 21.3104 195.557 20.883 195.364 20.3868C195.171 19.9044 195.074 19.3668 195.074 18.8154C195.074 18.2503 195.184 17.7265 195.391 17.244C195.598 16.7616 195.874 16.3342 196.232 15.9759C196.59 15.6175 196.99 15.3418 197.459 15.135C197.927 14.9283 198.424 14.8318 198.947 14.8318C199.485 14.8318 199.981 14.942 200.436 15.1488C200.891 15.3556 201.305 15.645 201.649 16.0034C201.994 16.3618 202.27 16.7891 202.462 17.2854C202.655 17.7678 202.752 18.3054 202.752 18.8568C202.752 19.4219 202.655 19.9457 202.449 20.4282Z" fill="white"/>
<path d="M219.955 20.6349L220.01 12.6815L217.239 12.6539L217.184 20.4971C217.184 20.8968 217.115 21.269 216.991 21.6136C216.867 21.9582 216.688 22.2477 216.467 22.4958C216.247 22.7439 215.971 22.9369 215.668 23.0747C215.364 23.2126 215.02 23.2815 214.648 23.2815C214.275 23.2815 213.945 23.2126 213.628 23.061C213.311 22.9231 213.049 22.7164 212.828 22.4682C212.608 22.2201 212.428 21.9169 212.304 21.5723C212.18 21.2277 212.125 20.8555 212.125 20.4557L212.18 12.6125L209.41 12.585L209.354 20.5385C209.354 21.3104 209.451 22.0134 209.672 22.6612C209.892 23.3091 210.223 23.8742 210.664 24.3429C211.105 24.8253 211.656 25.1975 212.318 25.4732C212.98 25.7489 213.752 25.8867 214.62 25.8867C215.488 25.8867 216.247 25.7627 216.922 25.5008C217.584 25.2389 218.149 24.8667 218.59 24.398C219.045 23.9294 219.376 23.3642 219.61 22.7301C219.83 22.1098 219.941 21.3931 219.955 20.6349Z" fill="white"/>
<path d="M235.71 25.7352L230.334 12.7643L228.046 12.7505L222.505 25.6387L225.565 25.6663L226.64 22.937L231.533 22.9784L232.595 25.7214L235.71 25.7352ZM227.522 20.5248L229.08 16.5136L230.596 20.5386L227.522 20.5248Z" fill="white"/>
<path d="M246.352 23.1851L241.21 23.1437L241.293 12.8469L238.508 12.8193L238.412 25.7627L246.324 25.8178L246.352 23.1851Z" fill="white"/>
<path d="M249.256 12.9024L249.158 25.832L251.928 25.8531L252.027 12.9235L249.256 12.9024Z" fill="white"/>
<path d="M254.705 15.4659L258.288 15.4934L258.22 25.9143L260.99 25.9281L261.073 15.521L264.657 15.5486L264.671 13.0261L254.718 12.9434L254.705 15.4659Z" fill="white"/>
<path d="M271.852 17.9195L269.233 13.0537L265.773 13.0261L270.446 20.4834L270.405 25.9971L273.176 26.0246L273.217 20.4972L278 13.1226L274.719 13.095L271.852 17.9195Z" fill="white"/>
<path d="M81.4507 34.1849L78.3079 34.1573L78.3355 31.3453L76.7089 31.3315L76.6538 38.8715L78.2666 38.8853L78.2941 35.6184L81.4369 35.646L81.4094 38.9129L83.0359 38.9266L83.091 31.3729L81.4645 31.3591L81.4507 34.1849Z" fill="white"/>
<path d="M95.9657 32.3516C95.621 32.007 95.1937 31.7314 94.7113 31.5522C94.2288 31.3592 93.705 31.2627 93.1261 31.2627C92.5472 31.2627 92.0234 31.3454 91.5409 31.5246C91.0585 31.7038 90.6312 31.9657 90.2866 32.3103C89.9282 32.6549 89.6525 33.0684 89.4595 33.5509C89.2527 34.0333 89.1562 34.5847 89.1562 35.1912C89.1562 35.7977 89.2527 36.3491 89.4457 36.8315C89.6387 37.3277 89.9144 37.7413 90.259 38.0859C90.6036 38.4305 91.0309 38.7062 91.5134 38.8854C91.9958 39.0783 92.5196 39.1748 93.0985 39.1748C93.6775 39.1748 94.2013 39.0921 94.6837 38.9129C95.1662 38.7337 95.5935 38.4718 95.9381 38.1272C96.2965 37.7826 96.5722 37.3691 96.7651 36.8867C96.9719 36.4042 97.0684 35.8528 97.0684 35.2463C97.0684 34.6398 96.9719 34.0885 96.7789 33.606C96.5859 33.1236 96.3103 32.6963 95.9657 32.3516ZM95.2075 36.2112C95.0972 36.5007 94.9456 36.7626 94.7389 36.9694C94.5321 37.1899 94.2978 37.3553 94.0083 37.4656C93.7326 37.5896 93.4156 37.6448 93.071 37.6448C92.7264 37.6448 92.4093 37.5759 92.1336 37.4518C91.858 37.3277 91.6098 37.1623 91.4169 36.9418C91.2239 36.7212 91.0723 36.4731 90.962 36.1699C90.8517 35.8804 90.8104 35.5496 90.8104 35.1912C90.8104 34.8466 90.8655 34.5158 90.9758 34.2263C91.086 33.923 91.2377 33.6749 91.4444 33.4544C91.6512 33.2338 91.8855 33.0684 92.175 32.9582C92.4507 32.8341 92.7677 32.779 93.1123 32.779C93.4569 32.779 93.774 32.8479 94.0496 32.9719C94.3253 33.096 94.5734 33.2614 94.7664 33.482C94.9594 33.7025 95.111 33.9644 95.2213 34.2539C95.3316 34.5571 95.3729 34.8742 95.3729 35.2188C95.3729 35.6047 95.3178 35.9218 95.2075 36.2112Z" fill="white"/>
<path d="M107.283 36.4867H107.255L105.615 31.552L103.161 31.5244L103.106 39.0782L104.719 39.0919L104.76 33.3026H104.788L106.593 39.1057H107.834L109.805 33.3439H109.819L109.778 39.1195L111.404 39.1333L111.459 31.5933L109.019 31.5658L107.283 36.4867Z" fill="white"/>
<path d="M119.564 36.1284L122.748 36.156L122.762 34.6122L119.578 34.5984L119.592 33.1924L122.969 33.2062V31.6761L117.993 31.6348L117.924 39.1885L123.107 39.2299L123.12 37.686L119.564 37.6585V36.1284Z" fill="white"/>
<path d="M139.207 33.3164C139.317 33.2613 139.441 33.2199 139.565 33.1924C139.689 33.1648 139.813 33.151 139.924 33.151C140.13 33.151 140.337 33.1924 140.558 33.2751C140.778 33.3578 140.957 33.4818 141.095 33.661L142.212 32.4204C141.908 32.131 141.55 31.9242 141.164 31.8002C140.778 31.6761 140.378 31.6072 139.965 31.6072C139.606 31.6072 139.262 31.6485 138.917 31.7588C138.573 31.8553 138.283 32.0069 138.021 32.2137C137.759 32.4204 137.553 32.6686 137.387 32.9718C137.222 33.2751 137.153 33.6335 137.139 34.0332C137.139 34.4467 137.222 34.7913 137.387 35.0532C137.553 35.3151 137.759 35.5219 138.021 35.6735C138.269 35.8251 138.545 35.963 138.848 36.0595C139.152 36.156 139.427 36.2525 139.675 36.3489C139.924 36.4454 140.144 36.5557 140.309 36.6936C140.475 36.8314 140.558 37.0106 140.558 37.2311C140.558 37.369 140.516 37.4793 140.461 37.5757C140.392 37.6722 140.309 37.7549 140.199 37.8239C140.089 37.8928 139.965 37.9341 139.841 37.9617C139.703 37.9893 139.579 38.0031 139.441 38.0031C139.165 38.0031 138.917 37.9341 138.655 37.8101C138.407 37.686 138.2 37.5068 138.035 37.2725L136.877 38.5682C137.222 38.899 137.608 39.1471 138.008 39.2988C138.407 39.4504 138.862 39.5331 139.331 39.5331C139.717 39.5331 140.075 39.4917 140.42 39.3953C140.764 39.2988 141.068 39.1471 141.33 38.9404C141.591 38.7336 141.798 38.4855 141.95 38.1685C142.101 37.8514 142.184 37.493 142.184 37.0657C142.184 36.6246 142.101 36.2662 141.95 36.0043C141.798 35.7424 141.578 35.5357 141.33 35.3703C141.081 35.2186 140.806 35.0946 140.516 34.9981C140.227 34.9154 139.951 34.8189 139.703 34.7362C139.455 34.6535 139.248 34.5432 139.083 34.4192C138.917 34.2951 138.835 34.1159 138.835 33.8954C138.835 33.7575 138.876 33.6335 138.945 33.537C139.014 33.4543 139.096 33.3853 139.207 33.3164Z" fill="white"/>
<path d="M150.055 36.3628L153.239 36.3904L153.253 34.8465L150.069 34.819V33.413L153.446 33.4405L153.46 31.9105L148.47 31.8691L148.415 39.4229L153.584 39.4505L153.597 37.9204L150.041 37.8928L150.055 36.3628Z" fill="white"/>
<path d="M165.093 35.6458C165.369 35.2737 165.507 34.8188 165.507 34.295C165.507 33.8539 165.438 33.4817 165.286 33.1922C165.135 32.9028 164.942 32.6547 164.694 32.4892C164.446 32.31 164.156 32.186 163.812 32.1033C163.481 32.0206 163.122 31.9792 162.75 31.9792L159.911 31.9517L159.855 39.4916L161.468 39.5054L161.496 36.4867H162.295L163.812 39.5192L165.755 39.533L163.908 36.335C164.418 36.2523 164.818 36.018 165.093 35.6458ZM163.701 34.7499C163.619 34.8601 163.508 34.9428 163.37 34.998C163.233 35.0531 163.095 35.0807 162.929 35.0945C162.764 35.1082 162.612 35.1082 162.474 35.1082L161.523 35.0945L161.537 33.3852L162.599 33.399C162.75 33.399 162.888 33.4128 163.04 33.4404C163.191 33.4679 163.329 33.5093 163.439 33.5644C163.563 33.6195 163.646 33.716 163.729 33.8263C163.798 33.9366 163.839 34.0882 163.839 34.2812C163.825 34.4742 163.784 34.6396 163.701 34.7499Z" fill="white"/>
<path d="M174.522 37.0105H174.508L172.73 32.0482L170.883 32.0344L173.764 39.6157H175.059L178.147 32.0896H176.41L174.522 37.0105Z" fill="white"/>
<path d="M183.865 32.1368L183.809 39.6768L185.421 39.6888L185.478 32.1488L183.865 32.1368Z" fill="white"/>
<path d="M196.122 38.2235C195.86 38.3614 195.57 38.4303 195.24 38.4303C194.95 38.4303 194.674 38.3614 194.426 38.2373C194.178 38.1133 193.958 37.9479 193.778 37.7273C193.599 37.5068 193.448 37.2586 193.337 36.9554C193.227 36.6659 193.186 36.3351 193.186 35.9767C193.186 35.6321 193.241 35.3013 193.351 35.0118C193.461 34.7086 193.613 34.4604 193.806 34.2399C193.999 34.0194 194.22 33.8539 194.481 33.7437C194.743 33.6196 195.019 33.5645 195.322 33.5645C195.626 33.5645 195.887 33.6196 196.122 33.7299C196.356 33.8402 196.549 33.9918 196.701 34.1985L197.955 33.1647C197.803 32.958 197.624 32.7788 197.417 32.6409C197.224 32.5031 197.004 32.379 196.797 32.2963C196.577 32.2136 196.356 32.1447 196.136 32.1033C195.915 32.062 195.694 32.0482 195.488 32.0344C194.909 32.0344 194.385 32.1171 193.902 32.2963C193.42 32.4755 192.993 32.7374 192.648 33.082C192.29 33.4266 192.014 33.8402 191.821 34.3226C191.614 34.8051 191.518 35.3564 191.518 35.9629C191.518 36.5694 191.614 37.1208 191.807 37.6032C192 38.0995 192.276 38.513 192.621 38.8576C192.965 39.2022 193.392 39.4779 193.875 39.6571C194.357 39.8501 194.881 39.9466 195.46 39.9466C195.97 39.9466 196.453 39.8501 196.935 39.6433C197.417 39.4365 197.817 39.1057 198.12 38.6646L196.783 37.617C196.59 37.8789 196.384 38.0857 196.122 38.2235Z" fill="white"/>
<path d="M205.661 36.7763L208.845 36.8038L208.859 35.2738L205.674 35.2462V33.8402L209.052 33.8678L209.065 32.324L204.075 32.2964L204.02 39.8363L209.189 39.8777L209.203 38.3477L205.647 38.3201L205.661 36.7763Z" fill="white"/>
<path d="M217.253 33.9092C217.363 33.8541 217.487 33.8127 217.612 33.7851C217.736 33.7576 217.86 33.7438 217.97 33.7438C218.177 33.7438 218.383 33.7851 218.604 33.8678C218.825 33.9505 219.004 34.0746 219.142 34.2538L220.258 33.0132C219.955 32.7238 219.596 32.517 219.21 32.3929C218.825 32.2689 218.425 32.2 218.011 32.2C217.653 32.2 217.308 32.2413 216.964 32.3516C216.619 32.4481 216.33 32.5997 216.068 32.8065C215.806 33.0132 215.599 33.2613 215.434 33.5646C215.282 33.8678 215.199 34.2262 215.185 34.626C215.185 35.0395 215.268 35.3841 215.434 35.646C215.599 35.9079 215.806 36.1147 216.068 36.2663C216.316 36.4179 216.591 36.5558 216.895 36.6522C217.198 36.7487 217.474 36.8452 217.722 36.9417C217.97 37.0382 218.19 37.1485 218.356 37.2863C218.521 37.4242 218.604 37.6034 218.604 37.8239C218.604 37.9618 218.563 38.072 218.507 38.1685C218.439 38.265 218.356 38.3477 218.246 38.4166C218.135 38.4856 218.011 38.5269 217.887 38.5545C217.749 38.582 217.625 38.5958 217.487 38.5958C217.212 38.5958 216.964 38.5269 216.702 38.4028C216.454 38.2788 216.247 38.0996 216.081 37.8653L214.924 39.161C215.268 39.4918 215.654 39.7399 216.054 39.8915C216.454 40.0432 216.909 40.1259 217.377 40.1259C217.763 40.1259 218.122 40.0845 218.466 39.988C218.811 39.8915 219.114 39.7399 219.376 39.5331C219.638 39.3264 219.845 39.0645 219.996 38.7612C220.148 38.4442 220.231 38.0858 220.231 37.6585C220.231 37.2174 220.148 36.859 219.996 36.5971C219.845 36.3352 219.624 36.1284 219.376 35.963C219.128 35.7976 218.852 35.6874 218.563 35.5909C218.273 35.5082 217.997 35.4117 217.749 35.329C217.501 35.2463 217.294 35.136 217.129 35.0119C216.964 34.8879 216.881 34.7087 216.881 34.4881C216.881 34.3503 216.922 34.2262 216.991 34.1297C217.046 34.047 217.143 33.9643 217.253 33.9092Z" fill="white"/>
<path d="M58.7345 20.1939L61.1192 15.4797L30.5596 0L0 15.4659L2.38467 20.1801L7.74673 17.4646V34.7913H4.82447V40.0845H56.3085V34.7913H53.3862V17.4784L58.7345 20.1939ZM48.7548 34.8051H32.2137V31.2212L37.3139 31.1385L37.1485 29.319L45.9841 24.8667L42.3175 23.3918L42.4829 17.8506L37.1622 20.6074L37.5068 12.4196L33.4956 13.1364L30.5596 9.80057L27.6236 13.1364L23.6124 12.4196L23.957 20.6074L18.6363 17.8506L18.8017 23.3918L15.1351 24.8667L23.9707 29.319L23.8053 31.1385L28.9055 31.2212V34.8051H12.3644V15.1351L30.5596 5.92721L48.741 15.1351V34.8051H48.7548Z" fill="white"/>
</g>
</svg>
